<svg width="716" height="134" viewBox="0 0 716 134" fill="none" xmlns="http://www.w3.org/2000/svg">
<path d="M263.055 44.9337H280.769V101.905H263.055V93.6495H262.839C259.01 100.348 252.799 103.697 244.205 103.697C238.607 103.697 234.129 101.923 230.771 98.3745C227.448 94.8261 225.787 89.8479 225.787 83.4392V44.9337H243.5V77.791C243.5 81.9548 244.205 84.9058 245.613 86.6436C247.057 88.3816 249.314 89.2505 252.384 89.2505C259.498 89.2505 263.055 85.4669 263.055 77.8996V44.9337ZM289.599 22.3953H307.365V101.905H289.599V22.3953ZM348.533 58.2938H338.675V81.8643C338.675 82.6971 338.691 83.4212 338.728 84.0366C338.8 84.6161 338.945 85.1409 339.161 85.6118C339.415 86.0824 339.613 86.4624 339.758 86.7521C339.938 87.0419 340.281 87.2953 340.786 87.5124C341.327 87.7299 341.763 87.8927 342.088 88.0013C342.413 88.1099 342.989 88.2005 343.821 88.2728C344.687 88.309 345.392 88.327 345.934 88.327C346.475 88.327 347.342 88.327 348.533 88.327V101.687C344.632 102.484 340.968 102.882 337.537 102.882C331.29 102.882 326.956 101.307 324.536 98.1573C322.117 94.971 320.907 89.9928 320.907 83.222V58.2938H313.052V44.9337H320.907V29.0752H338.675V44.9337H348.533V58.2938ZM386.886 43.9562C388.798 43.9562 390.422 44.1011 391.759 44.3905V59.9776H391.542C389.231 59.543 386.975 59.561 384.772 60.0319C382.57 60.4662 380.565 61.2991 378.758 62.53C376.988 63.7611 375.546 65.4989 374.426 67.7438C373.343 69.9525 372.802 72.5231 372.802 75.4558V101.905H355.033V44.9337H372.802V54.2748H373.018C374.426 51.0527 376.323 48.5364 378.705 46.726C381.088 44.8794 383.814 43.9562 386.886 43.9562ZM429.245 60.7379C429.245 57.1895 426.841 55.4154 422.039 55.4154C418.825 55.4154 416.405 56.0492 414.781 57.3164C413.193 58.5835 412.253 60.575 411.965 63.2903H395.335C395.478 60.4662 396.093 57.8775 397.176 55.524C398.259 53.1708 399.849 51.0527 401.944 49.1698C404.039 47.2872 406.801 45.8209 410.23 44.7708C413.698 43.7208 417.671 43.1959 422.148 43.1959C430.455 43.1959 436.665 45.0605 440.783 48.7898C444.935 52.4828 447.011 58.6558 447.011 67.3092V93.4323C447.011 96.2564 448.112 97.6685 450.315 97.6685V101.905C447.175 103.099 443.743 103.697 440.024 103.697C436.34 103.697 433.722 102.973 432.169 101.524C430.616 100.04 429.839 98.1573 429.839 95.8761H429.623C427.673 98.1211 425.09 99.9857 421.878 101.47C418.698 102.955 415.322 103.697 411.749 103.697C405.898 103.697 401.329 102.194 398.043 99.1891C394.757 96.1839 393.114 92.2374 393.114 87.3496C393.114 81.9186 394.936 77.7007 398.584 74.6955C402.269 71.6902 407.649 69.4816 414.728 68.0696C419.963 67.0195 423.339 66.2049 424.858 65.6258C427.745 64.3946 429.208 62.7654 429.245 60.7379ZM417.924 91.4229C421.535 91.4229 424.314 90.4271 426.266 88.4359C428.252 86.4444 429.245 84.0006 429.245 81.104V74.2066C426.897 75.1118 423.865 75.9627 420.143 76.7593C413.933 78.1713 410.827 80.8505 410.827 84.7969C410.827 89.2142 413.193 91.4229 417.924 91.4229ZM484.822 65.9515C487.384 66.5309 489.605 67.1101 491.483 67.6895C493.361 68.2327 495.348 69.011 497.442 70.0248C499.537 71.0385 501.235 72.1971 502.535 73.5006C503.871 74.7678 504.973 76.3972 505.839 78.3884C506.706 80.3799 507.139 82.6246 507.139 85.1229C507.139 91.0969 504.973 95.6953 500.638 98.9176C496.304 102.104 490.184 103.697 482.276 103.697C477.328 103.697 473.012 103.172 469.328 102.122C465.646 101.072 462.703 99.5874 460.5 97.6685C458.297 95.7495 456.636 93.5772 455.516 91.1514C454.396 88.7253 453.765 86.0098 453.62 83.0049H470.305C470.847 88.6168 474.603 91.4229 481.57 91.4229C484.064 91.4229 485.976 91.0065 487.313 90.1737C488.686 89.3411 489.37 88.1282 489.37 86.535C489.37 85.1229 488.81 83.9643 487.693 83.0592C486.607 82.154 485.416 81.5203 484.117 81.1582C482.854 80.76 480.651 80.2168 477.508 79.529C477.146 79.4565 476.858 79.4022 476.642 79.3662C476.462 79.2936 476.208 79.2393 475.884 79.203C475.596 79.1308 475.324 79.0582 475.07 78.9859C472.833 78.479 470.862 77.9902 469.167 77.5196C467.505 77.0127 465.717 76.2884 463.805 75.3472C461.89 74.3695 460.318 73.3014 459.09 72.1428C457.864 70.9842 456.834 69.4816 456.005 67.6352C455.173 65.7886 454.758 63.7248 454.758 61.4439C454.758 56.1215 456.961 51.7588 461.367 48.3552C465.772 44.9157 471.855 43.1959 479.621 43.1959C483.99 43.1959 487.854 43.7208 491.214 44.7708C494.571 45.8209 497.226 47.2689 499.175 49.1155C501.161 50.9259 502.662 52.9534 503.671 55.1983C504.719 57.4069 505.314 59.8144 505.459 62.4214H488.829C488.541 60.0679 487.709 58.3121 486.338 57.1535C484.965 55.9949 482.87 55.4154 480.054 55.4154C477.598 55.4154 475.72 55.8317 474.42 56.6646C473.158 57.4612 472.524 58.5655 472.524 59.9776C472.524 60.4119 472.561 60.8102 472.632 61.1722C472.706 61.5345 472.849 61.8602 473.065 62.1499C473.319 62.4397 473.535 62.6931 473.718 62.9102C473.934 63.0914 474.275 63.2903 474.745 63.5077C475.252 63.6886 475.685 63.8517 476.045 63.9963C476.444 64.1412 477.003 64.3043 477.725 64.4852C478.483 64.63 479.132 64.7749 479.674 64.9197C480.252 65.0283 481.066 65.1912 482.112 65.4086C483.161 65.5895 484.064 65.7706 484.822 65.9515ZM543.648 58.2938H533.79V81.8643C533.79 82.6971 533.809 83.4212 533.843 84.0366C533.917 84.6161 534.06 85.1409 534.276 85.6118C534.53 86.0824 534.728 86.4624 534.873 86.7521C535.053 87.0419 535.396 87.2953 535.903 87.5124C536.445 87.7299 536.878 87.8927 537.203 88.0013C537.528 88.1099 538.106 88.2005 538.936 88.2728C539.802 88.309 540.507 88.327 541.049 88.327C541.59 88.327 542.456 88.327 543.648 88.327V101.687C539.749 102.484 536.083 102.882 532.652 102.882C526.405 102.882 522.07 101.307 519.651 98.1573C517.231 94.971 516.022 89.9928 516.022 83.222V58.2938H508.169V44.9337H516.022V29.0752H533.79V44.9337H543.648V58.2938ZM577.449 103.697C568.096 103.697 560.692 100.909 555.241 95.3333C549.786 89.7211 547.06 82.4254 547.06 73.4463C547.06 64.4672 549.786 57.1895 555.241 51.6139C560.692 46.0017 568.096 43.1959 577.449 43.1959C586.731 43.1959 594.098 46.0017 599.549 51.6139C605.004 57.1895 607.73 64.4672 607.73 73.4463C607.73 82.4254 605.004 89.7211 599.549 95.3333C594.098 100.909 586.731 103.697 577.449 103.697ZM577.449 90.3365C581.385 90.3365 584.454 88.8885 586.657 85.9918C588.86 83.0592 589.961 78.8773 589.961 73.4463C589.961 68.0153 588.86 63.8334 586.657 60.9008C584.454 57.9681 581.385 56.5018 577.449 56.5018C573.477 56.5018 570.37 57.9681 568.133 60.9008C565.893 63.8334 564.773 68.0153 564.773 73.4463C564.773 78.8773 565.893 83.0592 568.133 85.9918C570.37 88.8885 573.477 90.3365 577.449 90.3365ZM645.702 43.9562C647.614 43.9562 649.241 44.1011 650.578 44.3905V59.9776H650.361C648.05 59.543 645.792 59.561 643.589 60.0319C641.386 60.4662 639.381 61.2991 637.577 62.53C635.807 63.7611 634.363 65.4989 633.243 67.7438C632.16 69.9525 631.618 72.5231 631.618 75.4558V101.905H613.85V44.9337H631.618V54.2748H631.835C633.243 51.0527 635.139 48.5364 637.522 46.726C639.907 44.8794 642.633 43.9562 645.702 43.9562ZM682.644 90.3365C685.462 90.3365 687.681 89.7937 689.308 88.7073C690.97 87.621 692.105 86.2815 692.721 84.6884H710.378C708.791 90.6263 705.685 95.2787 701.062 98.6459C696.477 102.013 690.444 103.697 682.969 103.697C673.653 103.697 666.268 100.909 660.816 95.3333C655.398 89.7574 652.688 82.4617 652.688 73.4463C652.688 64.612 655.343 57.3706 660.652 51.7225C665.961 46.038 673.056 43.1959 681.941 43.1959C688.26 43.1959 693.64 44.6803 698.083 47.6492C702.56 50.6181 705.864 54.6914 707.996 59.869C710.162 65.0463 711.245 71.1291 711.245 78.117H670.401C670.401 81.9186 671.595 84.9058 673.978 87.0781C676.397 89.2505 679.287 90.3365 682.644 90.3365ZM690.336 58.5112C688.241 56.4475 685.444 55.4154 681.941 55.4154C678.436 55.4154 675.639 56.4475 673.545 58.5112C671.45 60.5387 670.401 63.4714 670.401 67.3092H693.479C693.479 63.4714 692.43 60.5387 690.336 58.5112Z" fill="#FF3657"/>
<path d="M47.4477 38.2947H15.9431C8.64921 38.2947 2.73633 44.223 2.73633 51.5359V83.1226C2.73633 90.4355 8.64921 96.3638 15.9431 96.3638H47.4477C54.7416 96.3638 60.6545 90.4355 60.6545 83.1226V51.5359C60.6545 44.223 54.7416 38.2947 47.4477 38.2947Z" fill="url(#paint0_linear_1_9887)"/>
<path d="M93.7506 22.0767H56.3062C41.7184 22.0767 29.8926 33.9333 29.8926 48.5591V86.1012C29.8926 100.727 41.7184 112.584 56.3062 112.584H93.7506C108.338 112.584 120.164 100.727 120.164 86.1012V48.5591C120.164 33.9333 108.338 22.0767 93.7506 22.0767Z" fill="url(#paint1_linear_1_9887)"/>
<path d="M173.26 0.842041H93.4527C78.8648 0.842041 67.0391 12.6986 67.0391 27.3245V107.34C67.0391 121.966 78.8648 133.823 93.4527 133.823H173.26C187.848 133.823 199.674 121.966 199.674 107.34V27.3245C199.674 12.6986 187.848 0.842041 173.26 0.842041Z" fill="url(#paint2_linear_1_9887)"/>
<defs>
<linearGradient id="paint0_linear_1_9887" x1="2.73633" y1="67.329" x2="60.6545" y2="67.329" gradientUnits="userSpaceOnUse">
<stop stop-color="#FFC8E6"/>
<stop offset="1" stop-color="#FF3657"/>
</linearGradient>
<linearGradient id="paint1_linear_1_9887" x1="29.8928" y1="67.3304" x2="120.165" y2="67.3304" gradientUnits="userSpaceOnUse">
<stop stop-color="#FFC8E6"/>
<stop offset="1" stop-color="#FF3657"/>
</linearGradient>
<linearGradient id="paint2_linear_1_9887" x1="67.0388" y1="67.3324" x2="203.301" y2="67.3324" gradientUnits="userSpaceOnUse">
<stop stop-color="#FFC8E6"/>
<stop offset="1" stop-color="#FF3657"/>
</linearGradient>
</defs>
</svg>
