<svg width="30" height="31" viewBox="0 0 30 31" fill="none" xmlns="http://www.w3.org/2000/svg">
<path d="M26.0497 6.26234C25.4112 5.6236 24.6532 5.1169 23.8189 4.7712C22.9845 4.42549 22.0903 4.24756 21.1872 4.24756C20.2841 4.24756 19.3898 4.42549 18.5555 4.7712C17.7211 5.1169 16.9631 5.6236 16.3247 6.26234L14.9997 7.58734L13.6747 6.26234C12.385 4.97273 10.636 4.24823 8.81216 4.24823C6.98837 4.24823 5.23928 4.97273 3.94966 6.26234C2.66005 7.55196 1.93555 9.30105 1.93555 11.1248C1.93555 12.9486 2.66005 14.6977 3.94966 15.9873L5.27466 17.3123L14.9997 27.0373L24.7247 17.3123L26.0497 15.9873C26.6884 15.3489 27.1951 14.5909 27.5408 13.7565C27.8865 12.9222 28.0644 12.0279 28.0644 11.1248C28.0644 10.2217 27.8865 9.32747 27.5408 8.49315C27.1951 7.65882 26.6884 6.90079 26.0497 6.26234Z" stroke="#0D0000" stroke-width="1.5" stroke-linecap="round" stroke-linejoin="round"/>
</svg>
